<svg xmlns="http://www.w3.org/2000/svg" xmlns:xlink="http://www.w3.org/1999/xlink" width="500" zoomAndPan="magnify" viewBox="0 0 375 374.999991" height="500" preserveAspectRatio="xMidYMid meet" version="1.0"><defs><clipPath id="755eceb134"><path d="M 3.515625 1 L 371.765625 1 L 371.765625 375 L 3.515625 375 Z M 3.515625 1 " clip-rule="nonzero"/></clipPath></defs><g clip-path="url(#755eceb134)"><path fill="#0184a9" d="M 371.578125 128.882812 L 371.578125 253.523438 C 371.578125 256.714844 368.992188 259.300781 365.804688 259.300781 L 261.574219 259.300781 C 258.375 259.300781 255.789062 261.882812 255.789062 265.066406 L 255.789062 369.234375 C 255.789062 372.417969 253.207031 375 250.019531 375 L 125.261719 375 C 122.078125 375 119.492188 372.417969 119.492188 369.234375 C 119.492188 369.234375 119.484375 338.320312 119.46875 310.023438 C 119.453125 280.816406 131.984375 253.011719 153.878906 233.664062 L 155.695312 232.0625 C 168.933594 220.363281 185.96875 213.925781 203.652344 213.925781 L 277.476562 213.925781 C 280.09375 230.542969 294.523438 243.296875 311.878906 243.296875 C 331.90625 243.296875 348.042969 226.3125 346.621094 206.003906 C 345.414062 188.761719 331.363281 174.835938 314.101562 173.753906 C 295.765625 172.613281 280.203125 185.738281 277.476562 203.0625 L 203.652344 203.0625 C 183.316406 203.0625 163.726562 210.46875 148.492188 223.925781 L 108.457031 259.300781 L 9.476562 259.300781 C 6.289062 259.300781 3.703125 256.714844 3.703125 253.523438 L 3.703125 128.882812 C 3.703125 125.699219 6.285156 123.117188 9.476562 123.117188 L 113.71875 123.117188 C 116.90625 123.117188 119.492188 125.699219 119.492188 128.882812 L 119.492188 180.539062 C 119.492188 183.167969 121.621094 185.285156 124.242188 185.285156 L 124.242188 185.316406 L 134.761719 185.316406 C 137.957031 185.316406 140.542969 182.730469 140.542969 179.539062 L 140.542969 163.203125 C 140.542969 161.609375 139.902344 160.171875 138.847656 159.128906 C 137.824219 158.105469 136.40625 157.457031 134.839844 157.4375 C 131.625 157.394531 128.992188 154.871094 128.992188 151.65625 L 128.992188 60.316406 C 128.992188 29.070312 153.585938 3.464844 184.457031 1.804688 C 218.214844 -0.0117188 246.289062 27.625 246.289062 61.417969 L 246.289062 151.65625 C 246.289062 153.253906 245.636719 154.699219 244.59375 155.742188 C 243.554688 156.785156 242.117188 157.4375 240.519531 157.4375 C 237.324219 157.4375 234.738281 160.023438 234.738281 163.203125 L 234.738281 179.539062 C 234.738281 182.730469 237.324219 185.316406 240.519531 185.316406 L 251.039062 185.316406 L 251.039062 185.285156 C 253.660156 185.285156 255.789062 183.167969 255.789062 180.539062 L 255.789062 128.894531 C 255.789062 125.703125 258.378906 123.117188 261.574219 123.117188 L 365.804688 123.117188 C 368.992188 123.117188 371.578125 125.699219 371.578125 128.882812 Z M 311.878906 194.058594 C 319.855469 194.058594 326.324219 200.519531 326.324219 208.492188 C 326.324219 216.460938 319.855469 222.925781 311.878906 222.925781 C 303.902344 222.925781 297.4375 216.460938 297.4375 208.492188 C 297.4375 200.519531 303.902344 194.058594 311.878906 194.058594 Z M 311.878906 233.8125 C 325.855469 233.8125 337.214844 222.453125 337.214844 208.488281 C 337.214844 194.53125 325.855469 183.171875 311.878906 183.171875 C 297.90625 183.171875 286.539062 194.53125 286.539062 208.488281 C 286.539062 222.453125 297.90625 233.8125 311.878906 233.8125 " fill-opacity="1" fill-rule="nonzero"/></g></svg>